<?xml version="1.0" encoding="UTF-8"?>
<svg id="_图层_2" xmlns="http://www.w3.org/2000/svg" viewBox="0 0 111.46 32.31">
    <g id="_图层_1-2">
        <polygon points="6.43 32.06 18.74 32.06 12.58 16.15 18.74 .25 6.43 .25 .27 16.15 6.43 32.06" fill="#006934"
                 stroke="#231815" stroke-miterlimit="10" stroke-width=".5"/>
        <polygon points="24.9 32.06 37.21 32.06 31.05 16.15 37.21 .25 24.9 .25 18.74 16.15 24.9 32.06" fill="#006934"
                 stroke="#231815" stroke-miterlimit="10" stroke-width=".5"/>
        <polygon points="43.37 32.06 55.68 32.06 49.53 16.15 55.68 .25 43.37 .25 37.21 16.15 43.37 32.06" fill="#006934"
                 stroke="#231815" stroke-miterlimit="10" stroke-width=".5"/>
        <polygon points="61.84 32.06 74.16 32.06 68 16.15 74.16 .25 61.84 .25 55.68 16.15 61.84 32.06" fill="#006934"
                 stroke="#231815" stroke-miterlimit="10" stroke-width=".5"/>
        <polygon points="80.31 32.06 92.63 32.06 86.47 16.15 92.63 .25 80.31 .25 74.16 16.15 80.31 32.06" fill="#006934"
                 stroke="#231815" stroke-miterlimit="10" stroke-width=".5"/>
        <polygon points="98.78 32.06 111.1 32.06 104.94 16.15 111.1 .25 98.78 .25 92.63 16.15 98.78 32.06"
                 fill="#006934" stroke="#231815" stroke-miterlimit="10" stroke-width=".5"/>
    </g>
</svg>