<?xml version="1.0" encoding="UTF-8"?>
<svg id="_图层_2" xmlns="http://www.w3.org/2000/svg" viewBox="0 0 111.46 32.31">
    <g id="_图层_1-2">
        <polygon points="105.04 .25 92.72 .25 98.88 16.15 92.72 32.06 105.04 32.06 111.2 16.15 105.04 .25"
                 fill="#006934" stroke="#231815" stroke-miterlimit="10" stroke-width=".5"/>
        <polygon points="86.57 .25 74.25 .25 80.41 16.15 74.25 32.06 86.57 32.06 92.72 16.15 86.57 .25" fill="#006934"
                 stroke="#231815" stroke-miterlimit="10" stroke-width=".5"/>
        <polygon points="68.09 .25 55.78 .25 61.94 16.15 55.78 32.06 68.09 32.06 74.25 16.15 68.09 .25" fill="#006934"
                 stroke="#231815" stroke-miterlimit="10" stroke-width=".5"/>
        <polygon points="49.62 .25 37.31 .25 43.47 16.15 37.31 32.06 49.62 32.06 55.78 16.15 49.62 .25" fill="#006934"
                 stroke="#231815" stroke-miterlimit="10" stroke-width=".5"/>
        <polygon points="31.15 .25 18.84 .25 24.99 16.15 18.84 32.06 31.15 32.06 37.31 16.15 31.15 .25" fill="#006934"
                 stroke="#231815" stroke-miterlimit="10" stroke-width=".5"/>
        <polygon points="12.68 .25 .36 .25 6.52 16.15 .36 32.06 12.68 32.06 18.84 16.15 12.68 .25" fill="#006934"
                 stroke="#231815" stroke-miterlimit="10" stroke-width=".5"/>
    </g>
</svg>