<?xml version="1.0" encoding="UTF-8"?>
<svg id="_图层_2" xmlns="http://www.w3.org/2000/svg" viewBox="0 0 1772.72 260">
    <g id="_图层_1-2">
        <polygon
                points="102.66 121.71 132.61 91.77 113.06 91.7 76.51 128.25 112.86 164.53 132.61 164.66 102.66 134.79 159.93 134.79 159.93 121.71 102.66 121.71"
                fill="#fff" stroke-width="0"/>
        <polygon
                points="1670.01 133.06 1640.07 163.01 1659.62 163.07 1696.17 126.52 1659.81 90.24 1640.07 90.11 1670.01 119.99 1612.74 119.99 1612.74 133.06 1670.01 133.06"
                fill="#fff" stroke-width="0"/>
        <path d="M1642.72,0c-.54,0-1.08.02-1.62.02v-.02H131.62v.02c-.54,0-1.08-.02-1.62-.02C58.2,0,0,58.2,0,130s58.2,130,130,130c.54,0,1.08-.02,1.62-.02v.02h1509.47v-.02c.54,0,1.08.02,1.62.02,71.8,0,130-58.2,130-130S1714.52,0,1642.72,0ZM1642.72,216.54h-97s-598.83,0-598.83,0c-17.14,12.01-38.01,19.07-60.53,19.07s-43.39-7.05-60.53-19.07H227s-97,0-97,0c-47.79,0-86.54-38.74-86.54-86.54s38.75-86.54,86.54-86.54h695.83c17.14-12.01,38.01-19.07,60.53-19.07s43.39,7.05,60.53,19.07h695.83c47.79,0,86.54,38.74,86.54,86.54s-38.75,86.54-86.54,86.54Z"
              fill="#lineColor" stroke-width="0"/>
    </g>
</svg>